
<svg width="114" height="108" viewBox="0 0 114 108" fill="none" xmlns="http://www.w3.org/2000/svg">
<g filter="url(#filter0_d_460_45)">
<rect x="4" width="100" height="100" rx="50" fill="#FACB14"/>
</g>
<g filter="url(#filter1_d_460_45)">
<path d="M33.3097 44.2756C33.196 43.1297 32.7083 42.2396 31.8466 41.6051C30.9848 40.9706 29.8153 40.6534 28.3381 40.6534C27.3343 40.6534 26.4867 40.7955 25.7955 41.0795C25.1042 41.3542 24.5739 41.7377 24.2045 42.2301C23.8447 42.7225 23.6648 43.2812 23.6648 43.9062C23.6458 44.4271 23.7547 44.8816 23.9915 45.2699C24.2377 45.6581 24.5739 45.9943 25 46.2784C25.4261 46.553 25.9186 46.7945 26.4773 47.0028C27.036 47.2017 27.6326 47.3722 28.267 47.5142L30.8807 48.1392C32.1496 48.4233 33.3144 48.8021 34.375 49.2756C35.4356 49.7491 36.3542 50.3314 37.1307 51.0227C37.9072 51.714 38.5085 52.5284 38.9347 53.4659C39.3703 54.4034 39.5928 55.4782 39.6023 56.6903C39.5928 58.4706 39.1383 60.0142 38.2386 61.321C37.3485 62.6184 36.0606 63.6269 34.375 64.3466C32.6989 65.0568 30.6771 65.4119 28.3097 65.4119C25.9612 65.4119 23.9157 65.0521 22.1733 64.3324C20.4403 63.6127 19.0862 62.5473 18.1108 61.1364C17.1449 59.7159 16.6383 57.9593 16.5909 55.8665H22.5426C22.6089 56.8419 22.8883 57.6562 23.3807 58.3097C23.8826 58.9536 24.5502 59.4413 25.3835 59.7727C26.2263 60.0947 27.178 60.2557 28.2386 60.2557C29.2803 60.2557 30.1847 60.1042 30.9517 59.8011C31.7282 59.4981 32.3295 59.0767 32.7557 58.5369C33.1818 57.9972 33.3949 57.3769 33.3949 56.6761C33.3949 56.0227 33.2008 55.4735 32.8125 55.0284C32.4337 54.5833 31.875 54.2045 31.1364 53.892C30.4072 53.5795 29.5123 53.2955 28.4517 53.0398L25.2841 52.2443C22.8314 51.6477 20.8949 50.715 19.4744 49.446C18.054 48.1771 17.3485 46.4678 17.358 44.3182C17.3485 42.5568 17.8172 41.018 18.7642 39.7017C19.7206 38.3854 21.0322 37.358 22.6989 36.6193C24.3655 35.8807 26.2595 35.5114 28.3807 35.5114C30.5398 35.5114 32.4242 35.8807 34.0341 36.6193C35.6534 37.358 36.9129 38.3854 37.8125 39.7017C38.7121 41.018 39.1761 42.5426 39.2045 44.2756H33.3097ZM42.6314 40.9801V35.9091H66.5234V40.9801H57.6172V65H51.5376V40.9801H42.6314ZM70.4581 65V35.9091H81.9354C84.1418 35.9091 86.0215 36.3305 87.5746 37.1733C89.1276 38.0066 90.3113 39.1667 91.1257 40.6534C91.9496 42.1307 92.3615 43.8352 92.3615 45.767C92.3615 47.6989 91.9448 49.4034 91.1115 50.8807C90.2782 52.358 89.0708 53.5085 87.4893 54.3324C85.9174 55.1562 84.014 55.5682 81.7791 55.5682H74.4638V50.6392H80.7848C81.9685 50.6392 82.9439 50.4356 83.7109 50.0284C84.4875 49.6117 85.0651 49.0388 85.4439 48.3097C85.8321 47.571 86.0263 46.7235 86.0263 45.767C86.0263 44.8011 85.8321 43.9583 85.4439 43.2386C85.0651 42.5095 84.4875 41.946 83.7109 41.5483C82.9344 41.1411 81.9496 40.9375 80.7564 40.9375H76.6087V65H70.4581Z" fill="black"/>
</g>
<defs>
<filter id="filter0_d_460_45" x="0" y="0" width="108" height="108" filterUnits="userSpaceOnUse" color-interpolation-filters="sRGB">
<feFlood flood-opacity="0" result="BackgroundImageFix"/>
<feColorMatrix in="SourceAlpha" type="matrix" values="0 0 0 0 0 0 0 0 0 0 0 0 0 0 0 0 0 0 127 0" result="hardAlpha"/>
<feOffset dy="4"/>
<feGaussianBlur stdDeviation="2"/>
<feComposite in2="hardAlpha" operator="out"/>
<feColorMatrix type="matrix" values="0 0 0 0 0 0 0 0 0 0 0 0 0 0 0 0 0 0 0.25 0"/>
<feBlend mode="normal" in2="BackgroundImageFix" result="effect1_dropShadow_460_45"/>
<feBlend mode="normal" in="SourceGraphic" in2="effect1_dropShadow_460_45" result="shape"/>
</filter>
<filter id="filter1_d_460_45" x="12.5908" y="35.5117" width="83.7705" height="37.9004" filterUnits="userSpaceOnUse" color-interpolation-filters="sRGB">
<feFlood flood-opacity="0" result="BackgroundImageFix"/>
<feColorMatrix in="SourceAlpha" type="matrix" values="0 0 0 0 0 0 0 0 0 0 0 0 0 0 0 0 0 0 127 0" result="hardAlpha"/>
<feOffset dy="4"/>
<feGaussianBlur stdDeviation="2"/>
<feComposite in2="hardAlpha" operator="out"/>
<feColorMatrix type="matrix" values="0 0 0 0 0 0 0 0 0 0 0 0 0 0 0 0 0 0 0.25 0"/>
<feBlend mode="normal" in2="BackgroundImageFix" result="effect1_dropShadow_460_45"/>
<feBlend mode="normal" in="SourceGraphic" in2="effect1_dropShadow_460_45" result="shape"/>
</filter>
</defs>
</svg>
