<svg width="100" height="100" viewBox="0 0 100 100" fill="none" xmlns="http://www.w3.org/2000/svg">
<g filter="url(#filter0_d_460_45)">
<rect x="4" width="100" height="100" fill="#FACB14"/>
</g>
<g filter="url(#filter1_d_460_45)">
<path d="M22.3097 34.2756C22.196 33.1297 21.7083 32.2396 20.8466 31.6051C19.9848 30.9706 18.8153 30.6534 17.3381 30.6534C16.3343 30.6534 15.4867 30.7955 14.7955 31.0795C14.1042 31.3542 13.5739 31.7377 13.2045 32.2301C12.8447 32.7225 12.6648 33.2812 12.6648 33.9062C12.6458 34.4271 12.7547 34.8816 12.9915 35.2699C13.2377 35.6581 13.5739 35.9943 14 36.2784C14.4261 36.553 14.9186 36.7945 15.4773 37.0028C16.036 37.2017 16.6326 37.3722 17.267 37.5142L19.8807 38.1392C21.1496 38.4233 22.3144 38.8021 23.375 39.2756C24.4356 39.7491 25.3542 40.3314 26.1307 41.0227C26.9072 41.714 27.5085 42.5284 27.9347 43.4659C28.3703 44.4034 28.5928 45.4782 28.6023 46.6903C28.5928 48.4706 28.1383 50.0142 27.2386 51.321C26.3485 52.6184 25.0606 53.6269 23.375 54.3466C21.6989 55.0568 19.6771 55.4119 17.3097 55.4119C14.9612 55.4119 12.9157 55.0521 11.1733 54.3324C9.44034 53.6127 8.08617 52.5473 7.1108 51.1364C6.14489 49.7159 5.63826 47.9593 5.59091 45.8665H11.5426C11.6089 46.8419 11.8883 47.6562 12.3807 48.3097C12.8826 48.9536 13.5502 49.4413 14.3835 49.7727C15.2263 50.0947 16.178 50.2557 17.2386 50.2557C18.2803 50.2557 19.1847 50.1042 19.9517 49.8011C20.7282 49.4981 21.3295 49.0767 21.7557 48.5369C22.1818 47.9972 22.3949 47.3769 22.3949 46.6761C22.3949 46.0227 22.2008 45.4735 21.8125 45.0284C21.4337 44.5833 20.875 44.2045 20.1364 43.892C19.4072 43.5795 18.5123 43.2955 17.4517 43.0398L14.2841 42.2443C11.8314 41.6477 9.89489 40.715 8.47443 39.446C7.05398 38.1771 6.34848 36.4678 6.35795 34.3182C6.34848 32.5568 6.81723 31.018 7.7642 29.7017C8.72064 28.3854 10.0322 27.358 11.6989 26.6193C13.3655 25.8807 15.2595 25.5114 17.3807 25.5114C19.5398 25.5114 21.4242 25.8807 23.0341 26.6193C24.6534 27.358 25.9129 28.3854 26.8125 29.7017C27.7121 31.018 28.1761 32.5426 28.2045 34.2756H22.3097ZM31.6314 30.9801V25.9091H55.5234V30.9801H46.6172V55H40.5376V30.9801H31.6314ZM59.4581 55V25.9091H70.9354C73.1418 25.9091 75.0215 26.3305 76.5746 27.1733C78.1276 28.0066 79.3113 29.1667 80.1257 30.6534C80.9496 32.1307 81.3615 33.8352 81.3615 35.767C81.3615 37.6989 80.9448 39.4034 80.1115 40.8807C79.2782 42.358 78.0708 43.5085 76.4893 44.3324C74.9174 45.1562 73.014 45.5682 70.7791 45.5682H63.4638V40.6392H69.7848C70.9685 40.6392 71.9439 40.4356 72.7109 40.0284C73.4875 39.6117 74.0651 39.0388 74.4439 38.3097C74.8321 37.571 75.0263 36.7235 75.0263 35.767C75.0263 34.8011 74.8321 33.9583 74.4439 33.2386C74.0651 32.5095 73.4875 31.946 72.7109 31.5483C71.9344 31.1411 70.9496 30.9375 69.7564 30.9375H65.6087V55H59.4581Z" fill="black"/>
</g>
<defs>
<filter id="filter0_d_460_45" x="0" y="0" width="88" height="88" filterUnits="userSpaceOnUse" color-interpolation-filters="sRGB">
<feFlood flood-opacity="0" result="BackgroundImageFix"/>
<feColorMatrix in="SourceAlpha" type="matrix" values="0 0 0 0 0 0 0 0 0 0 0 0 0 0 0 0 0 0 127 0" result="hardAlpha"/>
<feOffset dy="4"/>
<feGaussianBlur stdDeviation="2"/>
<feComposite in2="hardAlpha" operator="out"/>
<feColorMatrix type="matrix" values="0 0 0 0 0 0 0 0 0 0 0 0 0 0 0 0 0 0 0.25 0"/>
<feBlend mode="normal" in2="BackgroundImageFix" result="effect1_dropShadow_460_45"/>
<feBlend mode="normal" in="SourceGraphic" in2="effect1_dropShadow_460_45" result="shape"/>
</filter>
<filter id="filter1_d_460_45" x="1.59082" y="25.5117" width="83.7705" height="37.9004" filterUnits="userSpaceOnUse" color-interpolation-filters="sRGB">
<feFlood flood-opacity="0" result="BackgroundImageFix"/>
<feColorMatrix in="SourceAlpha" type="matrix" values="0 0 0 0 0 0 0 0 0 0 0 0 0 0 0 0 0 0 127 0" result="hardAlpha"/>
<feOffset dy="4"/>
<feGaussianBlur stdDeviation="2"/>
<feComposite in2="hardAlpha" operator="out"/>
<feColorMatrix type="matrix" values="0 0 0 0 0 0 0 0 0 0 0 0 0 0 0 0 0 0 0.25 0"/>
<feBlend mode="normal" in2="BackgroundImageFix" result="effect1_dropShadow_460_45"/>
<feBlend mode="normal" in="SourceGraphic" in2="effect1_dropShadow_460_45" result="shape"/>
</filter>
</defs>
</svg>
