<svg width="121" height="121" viewBox="0 0 121 121" fill="none" xmlns="http://www.w3.org/2000/svg">
<path d="M120.5 60.5C120.5 93.6371 93.6371 120.5 60.5 120.5C27.3629 120.5 0.5 93.6371 0.5 60.5C0.5 27.3629 27.3629 0.5 60.5 0.5C93.6371 0.5 120.5 27.3629 120.5 60.5Z" fill="black"/>
<path d="M116 60C116 90.3757 91.3757 115 61 115C30.6243 115 6 90.3757 6 60C6 29.6243 30.6243 5 61 5C91.3757 5 116 29.6243 116 60Z" fill="#FACB14"/>
<path d="M73.9432 43.2614C73.6705 40.5114 72.5 38.375 70.4318 36.8523C68.3636 35.3295 65.5568 34.5682 62.0114 34.5682C59.6023 34.5682 57.5682 34.9091 55.9091 35.5909C54.25 36.25 52.9773 37.1705 52.0909 38.3523C51.2273 39.5341 50.7955 40.875 50.7955 42.375C50.75 43.625 51.0114 44.7159 51.5795 45.6477C52.1705 46.5795 52.9773 47.3864 54 48.0682C55.0227 48.7273 56.2045 49.3068 57.5455 49.8068C58.8864 50.2841 60.3182 50.6932 61.8409 51.0341L68.1136 52.5341C71.1591 53.2159 73.9545 54.125 76.5 55.2614C79.0455 56.3977 81.25 57.7955 83.1136 59.4545C84.9773 61.1136 86.4205 63.0682 87.4432 65.3182C88.4886 67.5682 89.0227 70.1477 89.0455 73.0568C89.0227 77.3295 87.9318 81.0341 85.7727 84.1705C83.6364 87.2841 80.5455 89.7045 76.5 91.4318C72.4773 93.1364 67.625 93.9886 61.9432 93.9886C56.3068 93.9886 51.3977 93.125 47.2159 91.3977C43.0568 89.6705 39.8068 87.1136 37.4659 83.7273C35.1477 80.3182 33.9318 76.1023 33.8182 71.0795H48.1023C48.2614 73.4205 48.9318 75.375 50.1136 76.9432C51.3182 78.4886 52.9205 79.6591 54.9205 80.4545C56.9432 81.2273 59.2273 81.6136 61.7727 81.6136C64.2727 81.6136 66.4432 81.25 68.2841 80.5227C70.1477 79.7955 71.5909 78.7841 72.6136 77.4886C73.6364 76.1932 74.1477 74.7045 74.1477 73.0227C74.1477 71.4545 73.6818 70.1364 72.75 69.0682C71.8409 68 70.5 67.0909 68.7273 66.3409C66.9773 65.5909 64.8295 64.9091 62.2841 64.2955L54.6818 62.3864C48.7955 60.9545 44.1477 58.7159 40.7386 55.6705C37.3295 52.625 35.6364 48.5227 35.6591 43.3636C35.6364 39.1364 36.7614 35.4432 39.0341 32.2841C41.3295 29.125 44.4773 26.6591 48.4773 24.8864C52.4773 23.1136 57.0227 22.2273 62.1136 22.2273C67.2955 22.2273 71.8182 23.1136 75.6818 24.8864C79.5682 26.6591 82.5909 29.125 84.75 32.2841C86.9091 35.4432 88.0227 39.1023 88.0909 43.2614H73.9432Z" fill="black"/>
</svg>
